<?xml version="1.0" standalone="no"?>
<!DOCTYPE svg PUBLIC "-//W3C//DTD SVG 20010904//EN"
 "http://www.w3.org/TR/2001/REC-SVG-20010904/DTD/svg10.dtd">
<svg version="1.0" xmlns="http://www.w3.org/2000/svg"
 width="700.000000pt" height="700.000000pt" viewBox="0 0 700.000000 700.000000"
 preserveAspectRatio="xMidYMid meet">
<metadata>
Created by potrace 1.11, written by Peter Selinger 2001-2013
</metadata>
<g transform="translate(0.000000,700.000000) scale(0.100000,-0.100000)"
fill="#000000" stroke="none">
<path d="M3319 6984 c-250 -40 -465 -135 -659 -291 -30 -24 -253 -242 -495
-484 -242 -242 -444 -444 -450 -450 -270 -263 -1243 -1243 -1281 -1289 -84
-104 -153 -222 -224 -385 -13 -28 -59 -179 -65 -212 -23 -125 -28 -172 -29
-273 0 -104 8 -210 19 -250 2 -8 7 -30 10 -48 11 -63 67 -227 107 -312 48
-101 126 -222 195 -305 61 -74 982 -995 994 -995 5 0 9 -4 9 -8 0 -7 1089
-1099 1158 -1162 39 -35 141 -110 150 -110 6 0 12 -4 14 -9 10 -27 249 -137
383 -176 141 -41 207 -49 375 -50 172 0 270 16 436 71 73 24 233 97 279 126
89 58 119 79 180 129 39 32 278 266 532 521 254 254 719 722 1035 1038 315
316 598 604 628 640 148 179 266 424 296 618 3 20 10 57 15 82 15 79 3 364
-20 464 -44 190 -108 338 -219 506 -73 111 -116 156 -1155 1196 -594 594
-1096 1091 -1115 1105 -20 13 -40 29 -46 34 -54 52 -260 164 -381 208 -72 25
-209 61 -280 72 -74 12 -319 12 -396 -1z m969 -4132 l-763 -762 -747 747 -747
747 762 763 762 762 748 -747 747 -747 -762 -763z"/>
</g>
</svg>
